<svg xmlns="http://www.w3.org/2000/svg" viewBox="0 0 33.08 33.08"><defs><style>.cls-1{fill:#5865f2;}</style></defs><g id="Слой_2" data-name="Слой 2"><g id="ELEMENTS"><path class="cls-1" d="M20.13,15.24a2,2,0,0,0-1.92,2.16,2,2,0,0,0,1.92,2.14,2,2,0,0,0,1.92-2.15A2,2,0,0,0,20.13,15.24Z"/><path class="cls-1" d="M13,15.24a2,2,0,0,0-1.91,2.16A2,2,0,0,0,13,19.54,2,2,0,0,0,15,17.39,2,2,0,0,0,13,15.24Z"/><path class="cls-1" d="M16.54,0A16.54,16.54,0,0,0,0,16.54H0A16.54,16.54,0,0,0,16.54,33.08h0A16.54,16.54,0,0,0,16.54,0ZM27.17,22a17.51,17.51,0,0,1-5.4,2.73,12.5,12.5,0,0,1-1.16-1.88A10.47,10.47,0,0,0,22.43,22L22,21.62a12.61,12.61,0,0,1-10.8,0l-.44.35a12.16,12.16,0,0,0,1.82.87,13,13,0,0,1-1.16,1.88A18,18,0,0,1,6,22,18,18,0,0,1,9.17,9.83a17.43,17.43,0,0,1,4.4-1.37,12.55,12.55,0,0,1,.58,1.16,16.63,16.63,0,0,1,4.88,0,11.28,11.28,0,0,1,.56-1.16A17.4,17.4,0,0,1,24,9.82,17.94,17.94,0,0,1,27.17,22Z"/></g></g></svg>