<svg xmlns="http://www.w3.org/2000/svg" viewBox="0 0 33.16 33.16"><defs><style>.cls-1{fill:#a436d2;}</style></defs><g id="Слой_2" data-name="Слой 2"><g id="ELEMENTS"><path class="cls-1" d="M16.58,0A16.58,16.58,0,1,0,33.16,16.58,16.58,16.58,0,0,0,16.58,0ZM9.28,9.12H24.09a2.27,2.27,0,0,1,.59.08l-.07.07L18,16.78a1.69,1.69,0,0,1-1.3.59,1.73,1.73,0,0,1-1.3-.59L8.7,9.19A2.2,2.2,0,0,1,9.28,9.12ZM26.39,20a4,4,0,0,1-4,4H11a4,4,0,0,1-4-4V11.41a2.32,2.32,0,0,1,.19-.91l6.7,7.61a3.74,3.74,0,0,0,5.62,0l6.62-7.51.08-.11a2.33,2.33,0,0,1,.19.92Z"/></g></g></svg>