<?xml version="1.0" encoding="utf-8"?>
<!-- Generator: Adobe Illustrator 26.0.1, SVG Export Plug-In . SVG Version: 6.00 Build 0)  -->
<svg version="1.1" id="Слой_1" xmlns="http://www.w3.org/2000/svg" xmlns:xlink="http://www.w3.org/1999/xlink" x="0px" y="0px"
	 viewBox="0 0 193.5 100.9" style="enable-background:new 0 0 193.5 100.9;" xml:space="preserve">
<style type="text/css">
	.st0{fill:#505491;}
	.st1{fill:#F9FCFA;}
	.st2{fill:#F4FAF9;}
	.st3{fill:#F8FCF9;}
	.st4{fill:#F6FAF7;}
	.st5{fill:#F8FBF9;}
	.st6{fill:#F8FBF6;}
	.st7{fill:#F2FAF9;}
	.st8{fill:#6667AB;}
	.st9{fill:#F2F9F8;}
	.st10{fill:#F1FBF9;}
	.st11{fill:#F7FAF9;}
	.st12{fill:#F9FDF8;}
	.st13{fill:#F7FCF8;}
</style>
<path class="st0" d="M37.7,15.1C40.4,6.3,49,1.2,57.8,0.1c7-0.4,14.6,0.7,20.1,5.3c3.8,2.9,5.2,7.7,6.5,12.1c2.1,0,4.3,0,6.4,0.2
	C91.2,12,96,7.7,101.1,5.9c3.1-1.3,6.1,0.5,8.8,1.8c2.3-1.1,4.4-3.2,7.2-2.9c2.4-0.3,4.8,2,7.1,0.7c3.4-1.9,7.7-2.5,11.1-0.3
	c3.5,1.6,4.7,5.7,5.6,9.1c7.1-2.5,15.6-3,21.8,1.8c1.8-0.8,3.6-1.7,5.5-2.5c1.3-6.1,8-10,13.9-8.5c6.6,1.4,10.8,9.7,6.6,15.4
	c1,3.5,1.3,7.2,0,10.7c2.6,2.6,5.5,5.8,4.9,9.8c0.5,5.5-3.6,9.8-7.7,12.7c2.7,4.1,1,9,2.6,13.3c1,4.2,0.2,9.1-3.1,12
	c-4.6,5-12,4.2-18.1,5.4c-1.1-0.7-2.2-1.4-3.4-2.1c-6.2,2.9-14,3.5-19.7-0.9c-2.3,2.1-5,3.7-8,4.6c-3.1,4.2-7.1,8.4-12.4,9.3
	c-5.1,0.2-8.7-4.4-9.6-9.1c-5.2,1.6-10.5,0.9-15.5-0.8c-4.4,3.5-10.5,3.9-15.7,2.2c-2.2,4.3-5.4,8.3-9.9,10.5
	c-9.6,4.8-22.7,3.2-29.6-5.5c-5.7-7.1-4.8-18.1,2-24.2c-1-2.2-1.8-4.5-2.2-6.8c-1.4-0.4-2.7-0.8-4-1.2c-1.3,0.7-2.6,1.3-3.8,2
	c-6.8,0-13.6-0.7-20.3,1.1c-1.9-1.3-4.1-2.4-5.3-4.4c-1.2-2.1-0.9-4.5-1-6.8C0,50-2.8,37.9,3.2,31.4c3.7-4,9.5-4.7,14.7-4.4
	c3.3-1.6,7.1-3.7,10.6-1.3c4.4,1.9,3.8,7.4,6,10.9c3.3,2.2,7.1-0.9,10.7-0.9C37.9,31.9,35.9,22.6,37.7,15.1z"/>
<path class="st1" d="M55.1,7C61,5.3,67.7,5.4,73.1,8.6c5.6,3.1,7.5,11.5,3.6,16.7c-1.6,2.1-4.3,3-6.6,4c2.9,7.6,7.3,16.2,15.6,18.6
	c4.8,1.3,8.6-3.4,13.3-3c2.6,0.1,2.4,3.3,2.6,5.2c-4.3,6.7-13.7,7.8-20.5,4.5c-6.8-3.5-11.1-10.3-13.9-17.2c-1.1-2.8-2-5.6-2.9-8.4
	c-0.4,0.1-1.3,0.2-1.7,0.2c0.1,1.7,0.2,3.3,0.3,5c1.1,0.5,2.1,1,3.2,1.4c-0.3,1.2-0.6,2.5-0.9,3.7c-1.9,3.4-4.9,6.1-8.3,8
	c-1-0.9-2.2-1.6-2.9-2.9c0.8-2.3,2.6-4.2,2.7-6.7c0.1-4.3-0.5-8.7-0.4-13c0.1-2.6-1.7-4.6-3.1-6.6c2.1-2.9,5.7-2.4,8.9-2.3
	c0.3,0.5,0.6,1.1,1,1.6c-0.4,2.3-0.6,4.6-0.7,6.9c2.9,0,6.3,0.4,8.2-2.3c2.9-3.3,0.2-8.3-3.6-9.4c-5.8-2-14.2-0.5-16.5,5.9
	c1,3.6,4.5,6.2,4.3,10.2c-1.5,0.6-3.2,1.9-4.9,1c-4.7-2.4-6.3-8.6-4.8-13.4C46.4,11.7,50.6,8.3,55.1,7z"/>
<path class="st2" d="M128.8,10.2c1.5-0.6,3.2-0.2,4.8-0.1c1.4,2.4,2.2,6.1-0.3,8.1c-2,0.8-4.9,0.6-5.9-1.6
	C126,14.5,127.3,11.9,128.8,10.2z"/>
<path class="st3" d="M98.5,16.4c1.3-2.7,4.2-4.2,6.8-5.4c3.6,8.2,1.5,17.5,3.2,26.1c0.9,1,1.9,2,2.9,3c0,0.5,0.1,1.6,0.1,2.2
	c-3.5,1.7-7.4,1.2-11.2,1c0-0.6-0.1-1.8-0.1-2.5c0.7-1.1,1.4-2.2,2-3.4c-0.1-5.9-0.9-11.8-0.8-17.7C100.4,18.6,97.9,18.3,98.5,16.4z
	"/>
<path class="st3" d="M112.2,14.7c2.1-1.8,4.2-3.7,6.9-4.2c2.1,4.8,1.8,10.1,2.3,15.2c0.4,4.5-0.9,9.9,2.7,13.4c1.2,0,2.4,0,3.6,0
	c0.5-0.6,1.4-1.7,1.9-2.3c0-3,0-6-0.1-9.1c-0.9-0.2-2.7-0.6-3.6-0.9c0.8-3.6,4.1-5.7,7.3-7.1c2.2,5.1,1.1,10.8,2.2,16.1
	c1.1,1.1,2.1,2.2,3.2,3.3c0,0.5-0.1,1.5-0.1,1.9c-3.2,0.6-6.5,0.9-9.8,0.9c-1-0.8-2-1.5-3.1-2.3c-2.4,4.5-8.4,3.1-12.5,2.2
	c0.9-2.4,2.9-4.5,2.6-7.3c-0.2-4.3-0.5-8.7-0.7-13c-0.1-1-0.3-2.1-0.4-3.1C112.6,18.3,112.3,16.4,112.2,14.7z"/>
<path class="st4" d="M176.3,13.1c2.1-3.9,9.4-2.1,8.4,2.7c-1.4,2.3-4.1,1.2-6.3,1.3c2.3,3.1,6.8,6,5.3,10.5c-1.8,4.2-7,4.5-10.9,5.8
	c-0.2,0.4-0.6,1.3-0.8,1.7c4.1,2.1,8.7-1.2,12.9,0.8c2,0.7,2.8,2.9,3.6,4.6c-1.4,6.9-9.2,9.6-15.5,9.1c-2.7-0.5-6.2-0.8-7.6-3.5
	c-1.2-2.4,1-5.4,3.6-4.9c2.3,1.6,4.2,3.6,6.7,4.8c2.3-0.9,6.4-1.2,5.7-4.7c-1.2-1.7-3.6-1.5-5.4-1.3c-2.8,0.2-5.6,0.2-8.3,0.2
	c-0.7-0.7-1.4-1.4-2.1-2.1c0-0.9,0-1.8,0-2.7c1.1-1,2.2-2,3.3-3c-1.3-1.5-3.2-2.6-3.6-4.6c-0.7-2.3,0.6-4.4,1.4-6.4
	c3.1-1.7,6.4-2.6,9.8-3.1C176.1,16.7,174.7,14.6,176.3,13.1z"/>
<path class="st5" d="M149.6,21.3c2.4-1.5,5.6-3.6,8.4-1.7c3,2,2.6,6,2.9,9.2c-0.1,2.7,2.8,4,3,6.6c-2.5,2.7-5,7.2-9.4,5.6
	c0.8-5.2,2.2-11-0.3-16c-1.5,0.4-3,0.8-4.6,1.2c-0.4,2.1-1.1,4.2-0.9,6.4c0.3,2.9,3,4.6,4.3,7c-3.5,1.7-7.4,1.7-11.1,1.5
	c-0.4-0.5-1.2-1.4-1.6-1.9c1-1,1.9-2,2.9-2.9c0.3-0.8,0.6-1.6,0.8-2.4c-0.4-2.2-0.6-4.4-0.8-6.5c-0.8-0.1-2.2-0.4-3-0.6
	c0-1.5,0.4-3,1-4.4c1.7-1.1,3.4-2.3,5.2-3.4c1.1,1.2,1.8,2.6,2.5,4.1C149.2,22.7,149.5,21.8,149.6,21.3z"/>
<path class="st0" d="M170.8,25.5c0.8-2.8,4.1-2.6,6.4-2.3c0.7,1.1,1.3,2.3,1.8,3.6c-1.6,1-3.3,1.7-5.1,2.4
	C172.7,28.2,169.8,27.6,170.8,25.5z"/>
<path class="st6" d="M83.4,24.2c4.4-2.2,10.4-0.7,12.7,3.8c2.1,4.5,2.2,10.5-1.6,14.2c-2.8,3-7.4,2.7-11.1,1.8
	C75.9,40.7,75.8,27.5,83.4,24.2z"/>
<path class="st0" d="M84.7,29.4c2.1-2.4,6.6-0.9,7,2.3c0.3,2.6,0.8,6.2-2,7.6c-2,0.3-4.6,0.5-5.5-1.7C82.9,35.1,82.6,31.5,84.7,29.4
	z"/>
<path class="st7" d="M22,33.1c1.4-1.6,3.2-2.6,5.4-2.2c0,1.8,0.3,4-1.5,5.1c-1.6,0.4-3.2,0.4-4.8,0.6c0.2,3.8,0.2,7.6,0.5,11.5
	c0.7,0.8,1.4,1.7,2.1,2.6c-1.9,2.6-3.8,5.9-7.5,5.6c0.7-4.1,2.9-8.6,0.1-12.4c-1.6,2.5-5.9,2.2-7.5-0.2C6.6,41.1,7,36.5,10,34.5
	C13.5,32,18,33.6,22,33.1z"/>
<path class="st8" d="M11.1,41c0.4-1.6,0.1-3.8,2.1-4.5c1.3-0.3,2.6-0.4,3.9-0.4c0.1,2,0.2,3.9,0.4,5.9C15.5,41,13.2,41.2,11.1,41z"
	/>
<path class="st9" d="M25.9,36.1c0.7,0.3,2.2,0.8,2.9,1.1c0.4,2.1,0.4,4.2,0.6,6.3c2.2-1.1,4.6-1.6,6.8-0.1c0.2,1.9,0.4,3.9,0.6,5.8
	c0.6,0.9,1.2,1.7,1.9,2.6c-1.1,1.3-2.3,2.6-3.5,3.8c-0.7-0.1-2.1-0.4-2.9-0.6c1-2.9,1.9-6.3-0.1-9c-0.9,0.3-1.8,0.8-2.7,1.2
	c0,1.4,0.1,2.8,0.2,4.2c0.7,1.2,1.4,2.3,2.2,3.4c-2.4,0.3-4.8,0.5-7.2,0.6c-0.1-0.4-0.1-1.1-0.2-1.5c0.6-0.9,1.2-1.9,1.8-2.8
	c-0.7-3.1-0.7-6.2-0.7-9.4C22.1,40.9,25.3,38,25.9,36.1z"/>
<path class="st10" d="M42.6,42.1c3.1-0.6,7.3-0.3,8,3.5c1.2,4.3-4.6,3.8-7.3,3.9c0.1,0.4,0.4,1.3,0.6,1.8c2.3,0,4.4-1.1,6.7-1.3
	c0.8,5.5-8.7,6.3-10.2,1.4C38.6,48.1,40,44.5,42.6,42.1z"/>
<path class="st3" d="M63.1,51.4c2.1,0.3,4-2.4,5.9-0.9c2.7,2.2,4.3,5.8,4.2,9.4c-0.9,0.7-1.9,1.2-2.9,1.8c-2.5-2.1-5.1-4.3-8.2-5.4
	c-1.2,0.4-2.5,0.9-3.7,1.3c-0.2,1.5-1.8,3.5,0.2,4.4c5.2,3,11.5,3.7,16.3,7.6c2.8,3.8,3.8,8.5,3.3,13.1c-3,11.5-19.1,14.7-27.5,7
	c-5.2-4.3-5.2-14.2,1-17.5c3.3-2,8.1-2,10.6,1.2c-0.5,1.1-0.9,2.2-1.4,3.3c-2.2,0.8-5,0.9-6.5,2.9c-0.8,2.8,0.4,6.2,3.2,7.3
	c3.8,1.7,8.9,1.3,11.8-1.8c3.4-3.8,2.4-10.5-2.2-13c-4.5-2.4-9.7-3.2-13.9-6.1c-3.3-2.3-3.9-7.2-1.5-10.4
	C54.4,52.1,59,50.8,63.1,51.4z"/>
<path class="st11" d="M167.7,56.4c2.7-2.4,6.8,0,9.6-2.3c0.5,0,1.5,0,2.1,0c1.4,2.1,2.4,4.5,3.3,6.9c-2.9,2.6-5.9-0.1-8.4-1.7
	c-0.5,0.1-1.4,0.2-1.9,0.2c0,0.8,0,1.6,0,2.4c3.3,1.5,7.3,1.9,9.9,4.6c2,2.1,0.6,5,0,7.4c-2.6,2.3-6,2.9-9.4,2.3
	c-1.2,0.6-2.5,1.8-3.9,1.1c-2.4-2-3.9-4.9-3.8-8.1c3.6-1.9,6.4,1.6,9.7,2.7c2.4,1,1.9-2,2.1-3.3c-3.4-1.1-6.8-2.1-10-3.7
	c-0.4-0.6-1.1-1.7-1.4-2.3C165.5,60.3,165.9,57.9,167.7,56.4z"/>
<path class="st3" d="M128.1,59.7c2.8-1.6,6.2-3.4,9.4-1.6c6.1,3.4,6.9,12.7,2.9,18.1c-1.9,3.1-6.6,4-9.5,1.8
	c-1.7-0.9-1.9-3.7-0.3-4.8c1.4-0.2,2.9-0.3,4.4-0.3c2.3-2.2,2.9-5.4,1.4-8.2c-0.6-0.4-1.7-1.2-2.2-1.6c-2.1,0-4.9,0.5-5.4,3
	c-0.4,3.3-0.1,6.7,0,10.1c-0.1,1.9,1.9,2.9,2.8,4.4c0.5,1.6-1.1,2.6-1.8,3.8c-1.9,1.9-4,4.6-7,3.8c-1.2-2.8,0.5-5.6,0.4-8.4
	c-0.2-4.5-0.8-9-0.6-13.5c-1-0.5-1.9-0.9-2.9-1.4c-0.1-0.6-0.3-1.7-0.3-2.2c2-2.1,4.1-4.5,7.2-4.7C126.8,58.3,127.7,59.3,128.1,59.7
	z"/>
<path class="st5" d="M148,58.7c4.1-4.1,12.2-3.4,14.8,2.1c1,2.1,1.6,5.8-1,7c-3.3,1.7-7.1,1.2-10.7,1.2c0.1,0.5,0.3,1.6,0.4,2.1
	c3.9,2.9,7.6-1.2,11.8-1.1c0.1,1.2,0.3,2.5,0.2,3.8c-1.5,2.6-4.7,3.3-7.3,4.2c-5,0.1-10-3.1-10.8-8.2
	C144.2,65.9,145.3,61.6,148,58.7z"/>
<path class="st12" d="M100.8,62.4c2.5-3.8,7.8-4.1,11.8-2.9c5,1.8,5.9,7.8,5.8,12.4c-0.9,2.7-2,5.8-4.8,7.1c-2.7,1.6-5.8,1-8.8,1.1
	C98.4,76.9,96.4,68,100.8,62.4z"/>
<path class="st13" d="M83.4,62c1.9-1.6,4.4-2,6.6-2.7c2.1,0.7,4.5,1.2,6.1,2.8c1.2,1.6,0.9,4.2-1,5.1c-2.7-1.1-5.4-2.6-8.5-2.1
	c-1.7,3-2.5,7.5,0.7,9.9c3.4,1.7,6.6-1.8,10.1-1.2c0.1,1.8,0.9,4.2-1.1,5.3c-2.7,2.5-6.6,2.7-10,2C78.9,78.4,77.4,67,83.4,62z"/>
<path class="st0" d="M151.9,61.4c2.6-0.6,6.3-1.2,6.5,2.5c-2.7,0.8-5.5,1.1-8.3,1.3C150.6,63.9,151.2,62.6,151.9,61.4z"/>
<path class="st0" d="M105.8,64.2c1.7-0.8,3.6-0.2,5.4,0c1.3,2.5,2.4,5.4,1.2,8.2c-1,3.5-6.7,3.6-7.9,0.1
	C104.1,69.8,103.5,66.3,105.8,64.2z"/>
</svg>
