<?xml version="1.0" encoding="utf-8"?>
<!-- Generator: Adobe Illustrator 26.0.1, SVG Export Plug-In . SVG Version: 6.00 Build 0)  -->
<svg version="1.1" id="Слой_1" xmlns="http://www.w3.org/2000/svg" xmlns:xlink="http://www.w3.org/1999/xlink" x="0px" y="0px"
	 viewBox="0 0 384 384" style="enable-background:new 0 0 384 384;" xml:space="preserve">
<style type="text/css">
	.st0{fill:#6667AB;}
</style>
<g id="Слой_1-2">
	<path class="st0" d="M0,204v-24c0.6-4.6,1-9.1,1.7-13.7c5.5-39,21.2-73.4,47.7-102.7c29.7-32.7,66.3-53.2,110-60.7
		C166.2,1.7,173.1,1,180,0h24c0.9,0.3,1.9,0.5,2.9,0.6c29,2.2,56.2,10.3,81.1,25.2c50.9,30.4,82.1,74.7,93,133.1
		c1.3,7,2,14.1,2.9,21.1v24c-0.3,1-0.5,1.9-0.6,2.9c-2.5,32.9-12.7,63.3-31.1,90.7C321.7,343,279.4,371,225.4,381
		c-7.1,1.3-14.3,2-21.4,3h-24c-0.9-0.3-1.9-0.5-2.9-0.6c-38.2-3-72.7-16.1-102.8-39.9C35.5,313,11.6,273.4,2.9,224.7
		C1.6,217.9,0.9,210.9,0,204z M265.4,192.1c-0.2-40.5-33.1-73.7-73.1-73.5c-40.6-0.1-73.7,32.7-73.8,73.3c0,0.3,0,0.7,0,1
		c0.2,40,33.6,72.7,74,72.6C232.5,265.3,265.6,232,265.4,192.1z"/>
</g>
</svg>
